<svg width="41" height="35" viewBox="0 0 41 35" fill="none" xmlns="http://www.w3.org/2000/svg">
<path d="M0 2.91667C0 1.30339 1.30871 0 2.92857 0H38.0714C39.6913 0 41 1.30339 41 2.91667C41 4.52995 39.6913 5.83333 38.0714 5.83333H2.92857C1.30871 5.83333 0 4.52995 0 2.91667ZM0 17.5C0 15.8867 1.30871 14.5833 2.92857 14.5833H38.0714C39.6913 14.5833 41 15.8867 41 17.5C41 19.1133 39.6913 20.4167 38.0714 20.4167H2.92857C1.30871 20.4167 0 19.1133 0 17.5ZM41 32.0833C41 33.6966 39.6913 35 38.0714 35H2.92857C1.30871 35 0 33.6966 0 32.0833C0 30.4701 1.30871 29.1667 2.92857 29.1667H38.0714C39.6913 29.1667 41 30.4701 41 32.0833Z" fill="#2652A5"/>
</svg>
