<svg width="90" height="88" viewBox="0 0 90 88" fill="none" xmlns="http://www.w3.org/2000/svg">
<path d="M11.7091 81.5688C11.7353 82.1225 12.2021 82.5503 12.7517 82.5243L21.7081 82.1003C22.2577 82.0743 22.682 81.6043 22.6558 81.0506C22.6296 80.4969 22.1628 80.0691 21.6132 80.0951L13.6519 80.472L13.2722 72.4513C13.246 71.8976 12.7792 71.4698 12.2296 71.4958C11.68 71.5219 11.2557 71.9918 11.2819 72.5455L11.7091 81.5688ZM28.5884 62.4357L11.967 80.8461L13.4415 82.1973L30.0629 63.7869L28.5884 62.4357Z" fill="#2652A5"/>
<path d="M74.1372 10.6612C74.1025 10.108 73.6291 9.68749 73.0799 9.722L64.131 10.2845C63.5819 10.319 63.1649 10.7955 63.1997 11.3487C63.2344 11.9019 63.7078 12.3225 64.2569 12.2879L72.2116 11.7879L72.7153 19.8017C72.75 20.355 73.2234 20.7755 73.7725 20.7409C74.3217 20.7064 74.7387 20.23 74.7039 19.6767L74.1372 10.6612ZM51.511 36.9598L73.8905 11.3879L72.3953 10.0596L50.0158 35.6316L51.511 36.9598Z" fill="#2652A5"/>
<path d="M74.2346 79.3695C74.7848 79.3695 75.2309 78.9201 75.2309 78.3658V69.3322C75.2309 68.7779 74.7848 68.3285 74.2346 68.3285C73.6844 68.3285 73.2383 68.7779 73.2383 69.3322V77.3621H65.2683C64.7181 77.3621 64.272 77.8114 64.272 78.3658C64.272 78.9201 64.7181 79.3695 65.2683 79.3695H74.2346ZM59.3382 64.7772L73.5301 79.0755L74.9391 77.656L60.7472 63.3577L59.3382 64.7772Z" fill="#2652A5"/>
<path d="M13.2507 8.56661C12.7014 8.5342 12.2297 8.95651 12.197 9.50988L11.6649 18.5275C11.6323 19.0809 12.0511 19.5557 12.6003 19.5882C13.1496 19.6206 13.6214 19.1983 13.654 18.6449L14.127 10.6292L22.0835 11.0987C22.6327 11.1311 23.1045 10.7088 23.1371 10.1555C23.1698 9.60209 22.751 9.12722 22.2017 9.09481L13.2507 8.56661ZM33.6771 31.2846L13.9367 8.90157L12.4465 10.2356L32.187 32.6186L33.6771 31.2846Z" fill="#2652A5"/>
<path d="M44.9058 87.9948L41.9436 82.8437L47.8526 82.8347L44.9058 87.9948Z" fill="#2652A5"/>
<path d="M0.00733926 42.7723L5.11825 39.7846L5.13096 45.7378L0.00733926 42.7723Z" fill="#2652A5"/>
<path d="M89.8939 41.381L84.871 44.5165L84.6872 38.5662L89.8939 41.381Z" fill="#2652A5"/>
<path d="M44.8956 0L47.85 5.15564H41.9411L44.8956 0Z" fill="#2652A5"/>
<path d="M41.2821 61.0428H85.4244L64.9075 28.0467L54.8361 42.1128M41.2821 61.0428L48.3415 51.1834M41.2821 61.0428H16.1024L36.93 33.0421L42.6358 42.1128M48.3415 51.1834L42.6358 42.1128M48.3415 51.1834L54.8361 42.1128M42.6358 42.1128C42.6358 42.1128 45.6158 39.8705 48.3415 39.7328C51.3234 39.5822 54.8361 42.1128 54.8361 42.1128" stroke="#2652A5" stroke-width="3"/>
<path d="M82.7885 49.8278C82.7885 33.8013 80.0058 27.6452 74.1155 21.0534C68.2251 14.4616 60.0649 10.086 51.0978 8.71114C42.1308 7.33631 32.9433 9.05215 25.1828 13.551C17.4222 18.0499 11.5961 25.0376 8.74898 33.2612C5.90187 41.4848 6.21997 50.4066 9.64627 58.4268C13.0726 66.4471 19.383 73.0413 27.446 77.0272C35.5091 81.0131 44.7976 82.13 53.646 80.1776C62.4944 78.2252 68.6538 76.3444 76.4423 64.106H70.6731C66.0757 70.022 59.8792 73.2017 52.3559 74.8617C44.8327 76.5217 36.9353 75.5721 30.0798 72.1831C23.2243 68.7942 17.8589 63.1875 14.9458 56.3684C12.0326 49.5493 11.7621 41.9637 14.1829 34.9717C16.6036 27.9796 21.5572 22.0385 28.1555 18.2134C34.7538 14.3883 42.5653 12.9294 50.1894 14.0983C57.8135 15.2672 64.7517 18.9875 69.7598 24.5921C74.768 30.1968 75.7314 34.3841 77.3077 41.0861L82.7885 49.8278Z" fill="#2652A5"/>
</svg>
